<svg width="32" height="33" viewBox="0 0 32 33" fill="none" xmlns="http://www.w3.org/2000/svg">
<rect y="0.147461" width="32.0007" height="32.0007" rx="16.0004" fill="#8F8278"/>
<path d="M13.1531 8.91692C12.9125 8.33567 12.2781 8.02629 11.6719 8.19192L8.92188 8.94192C8.37813 9.09192 8 9.58567 8 10.1482C8 17.8794 14.2688 24.1482 22 24.1482C22.5625 24.1482 23.0563 23.77 23.2063 23.2263L23.9563 20.4763C24.1219 19.87 23.8125 19.2357 23.2312 18.995L20.2312 17.745C19.7219 17.5325 19.1313 17.6794 18.7844 18.1075L17.5219 19.6482C15.3219 18.6075 13.5406 16.8263 12.5 14.6263L14.0406 13.3669C14.4688 13.0169 14.6156 12.4294 14.4031 11.92L13.1531 8.92004V8.91692Z" fill="white"/>
</svg>
